<svg id="Layer_1" data-name="Layer 1" xmlns="http://www.w3.org/2000/svg" viewBox="0 0 53.49 6"><defs><style>.cls-1{fill:#666;}.cls-2{fill:#e0013f;}.cls-3{fill:#ccc;}</style></defs><title>画板 3</title><path class="cls-1" d="M7.94,1.41V5.23h1.9v.54H7.34V1.41Z"/><path class="cls-1" d="M13.82,4.71h-2.3l-.45,1.06h-.63l1.94-4.36H13l1.93,4.36h-.65Zm-.23-.54-.92-2.12-.91,2.12Z"/><path class="cls-1" d="M17.83,2a2.14,2.14,0,0,0-.6-.1,1.11,1.11,0,0,0-.61.15.45.45,0,0,0-.23.4.53.53,0,0,0,.14.38,1,1,0,0,0,.34.23l.55.2a6.28,6.28,0,0,1,.72.26,1.24,1.24,0,0,1,.47.37,1,1,0,0,1,.19.65,1.09,1.09,0,0,1-.2.65,1.3,1.3,0,0,1-.57.43,2.15,2.15,0,0,1-.84.15,2.43,2.43,0,0,1-.93-.19,2.53,2.53,0,0,1-.78-.5l.27-.52a2.24,2.24,0,0,0,.7.47,1.93,1.93,0,0,0,.76.16,1.21,1.21,0,0,0,.69-.17.53.53,0,0,0,.25-.46A.54.54,0,0,0,18,4.22,1,1,0,0,0,17.65,4a5.91,5.91,0,0,0-.56-.19,5.73,5.73,0,0,1-.71-.26,1.22,1.22,0,0,1-.46-.37,1,1,0,0,1-.19-.64,1,1,0,0,1,.19-.62,1.22,1.22,0,0,1,.54-.41,2.12,2.12,0,0,1,.81-.14,2.61,2.61,0,0,1,.77.12,2.58,2.58,0,0,1,.67.31l-.25.54A2.51,2.51,0,0,0,17.83,2Z"/><path class="cls-1" d="M22.06,2a2.14,2.14,0,0,0-.6-.1,1.11,1.11,0,0,0-.61.15.45.45,0,0,0-.23.4.53.53,0,0,0,.14.38,1,1,0,0,0,.34.23l.55.2a6.28,6.28,0,0,1,.72.26,1.24,1.24,0,0,1,.47.37,1,1,0,0,1,.19.65,1.09,1.09,0,0,1-.2.65,1.3,1.3,0,0,1-.57.43,2.15,2.15,0,0,1-.84.15,2.43,2.43,0,0,1-.93-.19,2.53,2.53,0,0,1-.78-.5L20,4.6a2.24,2.24,0,0,0,.7.47,1.93,1.93,0,0,0,.76.16,1.21,1.21,0,0,0,.69-.17.53.53,0,0,0,.25-.46.54.54,0,0,0-.14-.38A1,1,0,0,0,21.89,4a5.91,5.91,0,0,0-.56-.19,5.73,5.73,0,0,1-.71-.26,1.22,1.22,0,0,1-.46-.37A1,1,0,0,1,20,2.53a1,1,0,0,1,.19-.62,1.22,1.22,0,0,1,.54-.41,2.12,2.12,0,0,1,.81-.14,2.61,2.61,0,0,1,.77.12,2.58,2.58,0,0,1,.67.31l-.25.54A2.51,2.51,0,0,0,22.06,2Z"/><path class="cls-1" d="M27.19,5.77,26.33,4.4H25V5.77h-.6V1.41h1.71a1.92,1.92,0,0,1,1.28.38,1.35,1.35,0,0,1,.45,1.09,1.54,1.54,0,0,1-.25.89,1.38,1.38,0,0,1-.71.52l1,1.48Zm-1.11-1.9a1.32,1.32,0,0,0,.86-.25.88.88,0,0,0,.3-.72.85.85,0,0,0-.3-.71A1.34,1.34,0,0,0,26.08,2H25V3.87Z"/><path class="cls-1" d="M32.34,1.67a2.2,2.2,0,0,1,.83.8,2.13,2.13,0,0,1,.3,1.12,2.16,2.16,0,0,1-.3,1.12,2.21,2.21,0,0,1-.83.81,2.4,2.4,0,0,1-2.31,0,2.21,2.21,0,0,1-.83-.81,2.16,2.16,0,0,1-.31-1.12,2.13,2.13,0,0,1,.31-1.12,2.21,2.21,0,0,1,.83-.8,2.43,2.43,0,0,1,2.31,0Zm-2,.47a1.7,1.7,0,0,0-.62.61,1.66,1.66,0,0,0,0,1.69,1.72,1.72,0,0,0,.62.61,1.64,1.64,0,0,0,.84.23A1.61,1.61,0,0,0,32,5a1.71,1.71,0,0,0,.61-.61,1.68,1.68,0,0,0,0-1.69A1.69,1.69,0,0,0,32,2.13a1.63,1.63,0,0,0-.84-.22A1.66,1.66,0,0,0,30.34,2.13Z"/><path class="cls-1" d="M37.65,1.67a2.2,2.2,0,0,1,.83.8,2.13,2.13,0,0,1,.3,1.12,2.16,2.16,0,0,1-.3,1.12,2.21,2.21,0,0,1-.83.81,2.4,2.4,0,0,1-2.31,0,2.21,2.21,0,0,1-.83-.81,2.16,2.16,0,0,1-.31-1.12,2.13,2.13,0,0,1,.31-1.12,2.21,2.21,0,0,1,.83-.8,2.43,2.43,0,0,1,2.31,0Zm-2,.47a1.7,1.7,0,0,0-.62.61,1.66,1.66,0,0,0,0,1.69,1.72,1.72,0,0,0,.62.61,1.64,1.64,0,0,0,.84.23A1.61,1.61,0,0,0,37.34,5a1.71,1.71,0,0,0,.61-.61,1.68,1.68,0,0,0,0-1.69,1.69,1.69,0,0,0-.61-.61,1.63,1.63,0,0,0-.84-.22A1.66,1.66,0,0,0,35.66,2.13Z"/><path class="cls-1" d="M40.75,1.41l1.59,3.06,1.58-3.06h.72V5.77h-.56V2.29l-1.55,3h-.37l-1.56-3V5.77H40V1.41Z"/><path class="cls-2" d="M51.26,1.8a1.36,1.36,0,0,1,.44,1.08A1.44,1.44,0,0,1,51.25,4a1.82,1.82,0,0,1-1.26.4H48.91V5.77h-.6V1.41H50A1.87,1.87,0,0,1,51.26,1.8Zm-.43,1.83a.88.88,0,0,0,.3-.72.85.85,0,0,0-.3-.71A1.34,1.34,0,0,0,50,2H48.91V3.87H50A1.32,1.32,0,0,0,50.83,3.62Z"/><path class="cls-2" d="M53.49,1.41V5.77h-.6V1.41Z"/><path class="cls-1" d="M5.88,2.15a3,3,0,1,0-.24,2.29L3,3Z"/><path class="cls-3" d="M5.26,2.33a2.35,2.35,0,1,0-.19,1.79L3,3Z"/><path class="cls-2" d="M3.24,2.93a.25.25,0,1,0,0,.19L3,3Z"/></svg>